<?xml version="1.0" encoding="utf-8"?>
<!-- Generator: Adobe Illustrator 16.0.0, SVG Export Plug-In . SVG Version: 6.00 Build 0)  -->
<!DOCTYPE svg PUBLIC "-//W3C//DTD SVG 1.1//EN" "http://www.w3.org/Graphics/SVG/1.1/DTD/svg11.dtd">
<svg version="1.1"
	 id="svg2" sodipodi:docname="dog-park-15.svg" inkscape:version="0.91 r13725" xmlns:dc="http://purl.org/dc/elements/1.1/" xmlns:cc="http://creativecommons.org/ns#" xmlns:rdf="http://www.w3.org/1999/02/22-rdf-syntax-ns#" xmlns:svg="http://www.w3.org/2000/svg" xmlns:sodipodi="http://sodipodi.sourceforge.net/DTD/sodipodi-0.dtd" xmlns:inkscape="http://www.inkscape.org/namespaces/inkscape"
	 xmlns="http://www.w3.org/2000/svg" xmlns:xlink="http://www.w3.org/1999/xlink" x="0px" y="0px" width="15px" height="15px"
	 viewBox="0 0 15 15" enable-background="new 0 0 15 15" xml:space="preserve">
<sodipodi:namedview  inkscape:current-layer="svg2" inkscape:window-maximized="0" inkscape:window-y="0" inkscape:window-x="0" inkscape:window-height="779" inkscape:window-width="1899" inkscape:pageshadow="2" inkscape:pageopacity="0" inkscape:cy="7.5" inkscape:cx="-1.1122881" inkscape:zoom="15.733333" showgrid="false" guidetolerance="10" gridtolerance="10" objecttolerance="10" borderopacity="1" pagecolor="#ffffff" bordercolor="#666666" id="namedview9">
	</sodipodi:namedview>
<g id="g3">
	<path id="path5" fill="#FFFFFF" d="M10.301,1.221C9.914,1.221,9.6,1.2,9.5,2L9.1,4.521L11.5,6.5h2c1.4,0,1.5-0.959,1.5-0.959
		l-1.9-2.219C12.399,2.622,11.7,2.5,11,2.5V2C11,2,11.067,1.221,10.301,1.221z M4.75,1.5c0,0-0.951,0.021-1.551,0.221
		S2,2.621,2,3.621v3.9C2,9.222,1.3,9.5,1,9.5c0,0-1,0.021-1,1.021v2.199c0,0,0.001,0.801,0.801,0.801H1h0.5H2v-0.5v-0.199
		c0-0.4-0.2-0.602-0.5-0.701v-1.1c1,0,1.1-0.201,1.5-0.301l0.551,2.197c0.1,0.3,0.2,0.5,0.5,0.6h1L6,13.5v-0.801C6,12.023,5,12,5,12
		V9.5h3.5l0.699,2.621C9.6,13.521,10.5,13.5,10.5,13.5H11h1v-0.801C12,11.987,11,12,11,12l0.1-4.078L8,5.5H3.5v-2
		C3.5,3.1,3.776,3.005,4,3c0.494-0.012,0.75,0,0.75,0C5.164,3,5.5,2.664,5.5,2.25S5.164,1.5,4.75,1.5z M11.75,4
		C11.889,4,12,4.112,12,4.25S11.889,4.5,11.75,4.5S11.5,4.388,11.5,4.25S11.611,4,11.75,4z"/>
</g>
</svg>
