<?xml version="1.0" encoding="utf-8"?>
<!-- Generator: Adobe Illustrator 16.0.0, SVG Export Plug-In . SVG Version: 6.00 Build 0)  -->
<!DOCTYPE svg PUBLIC "-//W3C//DTD SVG 1.1//EN" "http://www.w3.org/Graphics/SVG/1.1/DTD/svg11.dtd">
<svg version="1.1" id="Layer_1" xmlns="http://www.w3.org/2000/svg" xmlns:xlink="http://www.w3.org/1999/xlink" x="0px" y="0px"
	 width="18.333px" height="17.834px" viewBox="0 0 18.333 17.834" enable-background="new 0 0 18.333 17.834" xml:space="preserve">
<g id="g3">
	<path id="path5" fill="#209AFB" d="M12.134,3.183c-0.387,0-0.701-0.021-0.801,0.779l-0.4,2.521l2.4,1.979h2
		c1.4,0,1.5-0.959,1.5-0.959l-1.9-2.219c-0.7-0.7-1.399-0.822-2.1-0.822v-0.5C12.833,3.962,12.9,3.183,12.134,3.183z M6.583,3.462
		c0,0-0.951,0.021-1.551,0.221s-1.199,0.9-1.199,1.9v3.9c0,1.7-0.7,1.979-1,1.979c0,0-1,0.021-1,1.021v2.199
		c0,0,0.001,0.801,0.801,0.801h0.199h0.5h0.5v-0.5v-0.199c0-0.4-0.2-0.602-0.5-0.701v-1.1c1,0,1.1-0.201,1.5-0.301l0.551,2.197
		c0.1,0.3,0.2,0.5,0.5,0.6h1l0.949-0.018v-0.801c0-0.676-1-0.699-1-0.699v-2.5h3.5l0.699,2.621c0.4,1.4,1.301,1.379,1.301,1.379h0.5
		h1v-0.801c0-0.712-1-0.699-1-0.699l0.1-4.078l-3.1-2.422h-4.5v-2c0-0.4,0.276-0.494,0.5-0.5c0.494-0.012,0.75,0,0.75,0
		c0.414,0,0.75-0.336,0.75-0.75S6.997,3.462,6.583,3.462z M13.583,5.962c0.139,0,0.25,0.111,0.25,0.25s-0.111,0.25-0.25,0.25
		s-0.25-0.111-0.25-0.25S13.444,5.962,13.583,5.962z"/>
</g>
</svg>
