<?xml version="1.0" encoding="UTF-8" standalone="no"?> <svg id="Layer_1" data-name="Layer 1" xmlns="http://www.w3.org/2000/svg" viewBox="0 0 24 24"><title>chat</title><path d="M17.62,2.21H6.38A4.38,4.38,0,0,0,2,6.59v5a4.38,4.38,0,0,0,3.89,4.34l.24,4.69a1.15,1.15,0,0,0,2,.81L14.06,16h3.56A4.38,4.38,0,0,0,22,11.59v-5A4.38,4.38,0,0,0,17.62,2.21ZM20,11.59A2.38,2.38,0,0,1,17.62,14h-4a1,1,0,0,0-.68.27L8,18.79l-.2-3.88a1,1,0,0,0-1-.95H6.38A2.38,2.38,0,0,1,4,11.59v-5A2.38,2.38,0,0,1,6.38,4.21H17.62A2.38,2.38,0,0,1,20,6.59Z"/><path d="M16.94,6.06H7.06a1,1,0,0,0,0,2h9.88a1,1,0,0,0,0-2Z"/><path d="M16.94,10H7.06a1,1,0,0,0,0,2h9.88a1,1,0,0,0,0-2Z"/></svg>